<?xml version="1.0" encoding="UTF-8"?><svg id="Layer_2" xmlns="http://www.w3.org/2000/svg" viewBox="0 0 36.5 8.57"><defs></defs><g id="Layer_1-2"><path d="M0,8.57v-.5H.16c.18,0,.35-.02,.5-.06s.27-.12,.35-.25,.13-.31,.13-.56V1.32c0-.24-.05-.42-.14-.53-.09-.12-.21-.19-.36-.23-.15-.04-.31-.05-.49-.05h-.16V0H3.37C4.38,0,5.12,.23,5.6,.67c.48,.44,.72,1.06,.72,1.84,0,.36-.06,.7-.17,1.03-.11,.32-.29,.61-.55,.87-.25,.26-.58,.46-1,.61-.41,.15-.91,.22-1.51,.22h-.76v2.03c0,.23,.05,.41,.14,.52,.09,.12,.21,.19,.36,.23,.15,.04,.31,.05,.49,.05h.4v.5H0Zm2.99-3.9c.36,0,.67-.04,.93-.11,.26-.08,.47-.2,.64-.37s.28-.39,.36-.65c.08-.27,.11-.59,.11-.98,0-.67-.14-1.17-.42-1.49-.28-.32-.76-.49-1.44-.49h-.82V4.67h.64Z"/><path d="M6.83,8.57v-.5h.16c.18,0,.35-.02,.5-.06s.27-.12,.35-.25,.13-.31,.13-.56V1.37c0-.26-.04-.44-.13-.56-.09-.12-.21-.2-.35-.24s-.31-.06-.5-.06h-.16V0h3.49V.51h-.16c-.18,0-.34,.02-.49,.05-.15,.04-.27,.11-.36,.23-.09,.12-.14,.29-.14,.53V7.97h2.36c.24,0,.43-.05,.58-.16,.15-.11,.26-.25,.33-.41,.07-.17,.12-.34,.14-.5l.12-.9h.62l-.08,2.58H6.83Z"/><path d="M13.85,8.57v-.5h.23c.16,0,.29-.02,.38-.07,.1-.05,.18-.14,.26-.28,.08-.14,.17-.33,.26-.59L17.65,0h.94l2.71,7.43c.06,.17,.13,.3,.2,.39,.07,.09,.16,.16,.26,.19s.23,.05,.38,.05h.16v.5h-3.3v-.5h.28c.24,0,.42-.05,.54-.14,.12-.09,.18-.24,.18-.44,0-.05,0-.09-.01-.14,0-.04-.02-.09-.03-.14-.01-.05-.03-.11-.05-.16l-.48-1.34h-3.16l-.46,1.26c-.02,.06-.04,.13-.06,.19-.02,.06-.03,.12-.04,.17,0,.05-.01,.1-.01,.15,0,.2,.07,.35,.2,.44,.13,.1,.33,.14,.59,.14h.28v.5h-2.93Zm2.65-3.47h2.71l-.74-2.1c-.08-.24-.16-.47-.23-.68-.08-.22-.14-.42-.2-.62-.06-.2-.11-.4-.16-.59-.04,.19-.09,.38-.14,.56-.05,.18-.11,.37-.17,.56-.06,.2-.14,.42-.24,.67l-.82,2.21Z"/><path d="M23.64,8.57v-.5h.28c.18,0,.34-.02,.49-.05s.27-.11,.36-.23c.09-.12,.14-.29,.14-.52v-2.27l-2.22-3.85c-.09-.15-.17-.27-.25-.37-.08-.09-.16-.16-.26-.2-.1-.04-.21-.07-.35-.07h-.16V0h3.3V.51h-.44c-.22,0-.36,.04-.43,.11-.07,.08-.1,.17-.1,.27,0,.11,.02,.22,.07,.34,.05,.11,.1,.21,.14,.3l.89,1.61c.14,.25,.25,.49,.35,.73,.1,.24,.18,.45,.25,.64,.07-.17,.18-.38,.31-.62,.14-.25,.27-.5,.41-.74l.77-1.38c.08-.14,.14-.27,.17-.39,.03-.12,.05-.23,.05-.33,0-.18-.06-.31-.19-.4-.12-.09-.3-.13-.53-.13h-.35V0h2.93V.51h-.14c-.11,0-.22,.03-.32,.08-.1,.06-.2,.15-.31,.29-.11,.14-.23,.32-.37,.56l-2.02,3.55v2.21c0,.25,.04,.43,.13,.56,.09,.12,.21,.21,.36,.25,.15,.04,.32,.06,.49,.06h.28v.5h-3.73Z"/><polygon points="36.5 0 36.5 3.95 36.5 6.36 36.5 6.62 32.08 6.62 32.08 5.41 30.16 5.41 29.58 5.8 29.44 5.6 29.9 5.29 29.44 4.97 29.58 4.77 30.16 5.16 32.08 5.16 32.08 3.95 35.23 3.95 35.23 0 36.5 0"/><path class="cls-1" d="M32.8,5.89s.27,.18,.59,.18,.59-.18,.59-.18c0,0-.27-.18-.59-.18s-.59,.18-.59,.18Z"/><path class="cls-1" d="M32.8,4.74s.27,.18,.59,.18,.59-.18,.59-.18c0,0-.27-.18-.59-.18s-.59,.18-.59,.18Z"/><polygon points="33.99 6.19 32.83 5.27 33.99 4.38 34.6 5.07 33.99 6.19"/></g></svg>